<?xml version="1.0" standalone="no"?>
<!DOCTYPE svg PUBLIC "-//W3C//DTD SVG 20010904//EN"
 "http://www.w3.org/TR/2001/REC-SVG-20010904/DTD/svg10.dtd">
<svg version="1.0" xmlns="http://www.w3.org/2000/svg"
 width="512.000000pt" height="512.000000pt" viewBox="0 0 512.000000 512.000000"
 preserveAspectRatio="xMidYMid meet">
<g transform="translate(0.000000,512.000000) scale(0.100000,-0.100000)"
fill="rgb(175, 175, 175)" stroke="none">
<path d="M1672 4460 c-59 -36 -72 -71 -72 -192 l0 -108 -367 0 c-418 0 -444
-4 -576 -72 -154 -80 -283 -244 -322 -409 -22 -96 -22 -2782 0 -2878 52 -217
249 -414 466 -466 97 -22 3421 -22 3518 0 217 52 414 249 466 466 22 96 22
2782 0 2878 -39 165 -168 329 -322 409 -132 68 -158 72 -575 72 l-368 0 0 108
c0 121 -13 156 -72 192 -45 27 -131 27 -176 0 -59 -36 -72 -71 -72 -192 l0
-108 -640 0 -640 0 0 108 c0 89 -3 112 -20 140 -30 48 -75 72 -140 72 -37 0
-66 -6 -88 -20z m-72 -727 c0 -122 13 -157 72 -193 45 -27 131 -27 176 0 59
36 72 71 72 193 l0 107 640 0 640 0 0 -107 c0 -90 3 -113 20 -141 30 -48 75
-72 140 -72 65 0 110 24 140 72 17 28 20 51 20 141 l0 109 353 -4 352 -3 55
-26 c79 -37 125 -81 162 -156 l32 -65 4 -194 5 -194 -1922 0 -1921 0 0 148 c0
225 19 304 89 385 39 44 116 85 182 96 30 5 197 9 372 10 l317 1 0 -107z
m2878 -1845 l-3 -993 -26 -56 c-34 -72 -96 -134 -168 -168 l-56 -26 -1665 0
-1665 0 -67 33 c-76 37 -120 82 -157 162 l-26 55 -3 993 -3 992 1921 0 1921 0
-3 -992z"/>
<path d="M1352 2220 c-48 -30 -72 -75 -72 -140 0 -65 24 -110 72 -140 30 -18
51 -20 248 -20 197 0 218 2 248 20 48 30 72 75 72 140 0 65 -24 110 -72 140
-30 18 -51 20 -248 20 -197 0 -218 -2 -248 -20z"/>
<path d="M2312 2220 c-48 -30 -72 -75 -72 -140 0 -65 24 -110 72 -140 30 -18
51 -20 248 -20 197 0 218 2 248 20 48 30 72 75 72 140 0 65 -24 110 -72 140
-30 18 -51 20 -248 20 -197 0 -218 -2 -248 -20z"/>
<path d="M3272 2220 c-48 -30 -72 -75 -72 -140 0 -65 24 -110 72 -140 30 -18
51 -20 248 -20 197 0 218 2 248 20 48 30 72 75 72 140 0 65 -24 110 -72 140
-30 18 -51 20 -248 20 -197 0 -218 -2 -248 -20z"/>
<path d="M1352 1580 c-48 -30 -72 -75 -72 -140 0 -65 24 -110 72 -140 30 -18
51 -20 248 -20 197 0 218 2 248 20 48 30 72 75 72 140 0 65 -24 110 -72 140
-30 18 -51 20 -248 20 -197 0 -218 -2 -248 -20z"/>
<path d="M2312 1580 c-48 -30 -72 -75 -72 -140 0 -65 24 -110 72 -140 30 -18
51 -20 248 -20 197 0 218 2 248 20 48 30 72 75 72 140 0 65 -24 110 -72 140
-30 18 -51 20 -248 20 -197 0 -218 -2 -248 -20z"/>
<path d="M3272 1580 c-48 -30 -72 -75 -72 -140 0 -65 24 -110 72 -140 30 -18
51 -20 248 -20 197 0 218 2 248 20 48 30 72 75 72 140 0 65 -24 110 -72 140
-30 18 -51 20 -248 20 -197 0 -218 -2 -248 -20z"/>
</g>
</svg>
